<svg xmlns="http://www.w3.org/2000/svg" width="49.116" height="49.116" viewBox="0 0 49.116 49.116">
  <g id="Group_164" data-name="Group 164" transform="translate(-1819.374 -51.51)">
    <path id="Path_150" data-name="Path 150" d="M1859.722,67.467a7.2,7.2,0,0,0-7.189-7.189h-17.2a7.2,7.2,0,0,0-7.188,7.189v17.2a7.2,7.2,0,0,0,7.188,7.189h17.2a7.2,7.2,0,0,0,7.189-7.189h0Zm-15.79,18.494a9.892,9.892,0,1,1,9.893-9.892A9.9,9.9,0,0,1,1843.932,85.961Zm12.074-18.409a2.5,2.5,0,1,1,.732-1.767A2.517,2.517,0,0,1,1856.006,67.552Z" fill="#437d99"/>
    <path id="Path_151" data-name="Path 151" d="M1843.932,69.582a6.486,6.486,0,1,0,6.486,6.486A6.494,6.494,0,0,0,1843.932,69.582Z" fill="#437d99"/>
    <path id="Path_152" data-name="Path 152" d="M1819.374,51.51v49.116h49.116V51.51Zm43.754,33.159a10.607,10.607,0,0,1-10.6,10.6h-17.2a10.606,10.606,0,0,1-10.594-10.6v-17.2a10.606,10.606,0,0,1,10.594-10.6h17.2a10.607,10.607,0,0,1,10.6,10.6Z" fill="#437d99"/>
  </g>
</svg>
