<svg xmlns="http://www.w3.org/2000/svg" width="539.814" height="99.438" viewBox="0 0 539.814 99.438">
  <g id="Group_168" data-name="Group 168" transform="translate(-42.999 -43.005)">
    <g id="Group_20" data-name="Group 20" transform="translate(0 -5382.417)">
      <path id="Path_27" data-name="Path 27" d="M582.813,5425.423H43v99.438H582.813Zm-536.167,95.79v-92.142h247.2l-17.461,92.142Z" fill="#f2c046"/>
      <path id="Path_28" data-name="Path 28" d="M293.842,5429.071l-17.461,92.142H46.646v-92.142Z" fill="#002c38"/>
      <path id="Path_29" data-name="Path 29" d="M335.654,5439.674a.734.734,0,0,1-.184.5l-8.315,6.791a3.56,3.56,0,0,1-.919.53,4.16,4.16,0,0,1-1.125.119h-1.146c-.519,0-.692-.162-.692-.681a.872.872,0,0,1,.26-.649l5.276-6.347a3.644,3.644,0,0,1,1.049-.963,3.113,3.113,0,0,1,1.363-.216h3.514C335.4,5438.755,335.654,5439,335.654,5439.674Zm11.689,64.283a.916.916,0,0,1-.292.692.943.943,0,0,1-.692.3h-1.525a1.007,1.007,0,0,1-.746-.249,1.543,1.543,0,0,1-.432-.551l-4.877-12.575h-27.8l-4.877,12.564a1.481,1.481,0,0,1-.432.562,1.069,1.069,0,0,1-.747.249H303.4a.926.926,0,0,1-.692-.3.894.894,0,0,1-.3-.594l.119-.736,19.345-49.61a1.681,1.681,0,0,1,1.708-1.189h2.606a1.684,1.684,0,0,1,1.708,1.179l19.312,49.523Zm-9.98-15.9-12.489-32.147-12.479,32.147Zm57.486,13.382H367.934v-47.785a1.042,1.042,0,0,0-1.14-1.141h-1.453a1.042,1.042,0,0,0-1.142,1.141v50.15a1.123,1.123,0,0,0,.3.84h0a1.126,1.126,0,0,0,.841.3h29.508a1.261,1.261,0,0,0,.9-.316,1.048,1.048,0,0,0,.321-.825v-1.147a1.069,1.069,0,0,0-1.218-1.218Zm56.626-48.926h-1.834a1.182,1.182,0,0,0-1.13.709L430.6,5487.943l-17.833-34.725a1.106,1.106,0,0,0-1.126-.7h-1.911a1.248,1.248,0,0,0-.893.315,1.153,1.153,0,0,0-.324.9v50.073a1.04,1.04,0,0,0,.322.825h0a1.25,1.25,0,0,0,.893.315h1.377a1.044,1.044,0,0,0,1.141-1.141v-41.435l1.022-.245,14.6,28.745a1.885,1.885,0,0,0,1.889,1.233h1.682a1.87,1.87,0,0,0,1.876-1.21l14.614-28.768,1.022.245v41.435a1.045,1.045,0,0,0,1.141,1.141h1.376a1.263,1.263,0,0,0,.9-.316,1.048,1.048,0,0,0,.321-.825v-50.073a1.066,1.066,0,0,0-1.218-1.218Zm58.477,32.624c-.351,13.843-6.776,20.573-19.642,20.573s-19.291-6.73-19.641-20.573v0c-.051-1.505-.077-3.66-.077-6.4s.026-4.9.077-6.406c.2-6.756,2.048-11.931,5.5-15.382s8.2-5.192,14.142-5.192,10.7,1.747,14.144,5.192,5.3,8.627,5.5,15.385c.1,3.1.153,5.195.153,6.4S510.056,5482.036,509.952,5485.142Zm-3.582-6.408c0-.962-.051-2.944-.153-6.059-.208-5.82-1.753-10.224-4.59-13.09a16.964,16.964,0,0,0-22.633,0c-2.838,2.866-4.383,7.27-4.59,13.091-.05,1.518-.077,3.556-.077,6.058s.027,4.54.077,6.058c.207,5.821,1.738,10.224,4.55,13.088s6.639,4.329,11.356,4.329,8.538-1.456,11.356-4.329,4.343-7.267,4.551-13.089C506.319,5481.677,506.37,5479.7,506.37,5478.734Zm55.718,12.92a11.129,11.129,0,0,0-1.7-6.42,13.88,13.88,0,0,0-5.12-4.262,63.247,63.247,0,0,0-9.7-3.787,97.188,97.188,0,0,1-9.309-3.424,13.075,13.075,0,0,1-4.9-3.518,9.081,9.081,0,0,1,2.035-12.6c2.4-1.582,5.65-2.383,9.663-2.383a16.419,16.419,0,0,1,9.441,2.579,9.3,9.3,0,0,1,4.321,6.688c.054.594.29.745.367.8a1.43,1.43,0,0,0,.778.257h1.529a1.011,1.011,0,0,0,.787-.283,1,1,0,0,0,.278-.705,11.769,11.769,0,0,0-2.126-5.93,14.931,14.931,0,0,0-5.908-4.939,21.081,21.081,0,0,0-9.467-1.968,22.457,22.457,0,0,0-9.257,1.748,13.586,13.586,0,0,0-5.851,4.739,11.867,11.867,0,0,0-2.011,6.732,12.6,12.6,0,0,0,1.528,6.526,12.248,12.248,0,0,0,4.729,4.315,54.217,54.217,0,0,0,9.118,3.706c4.425,1.424,7.784,2.626,9.984,3.572a15.1,15.1,0,0,1,5.192,3.418,7.34,7.34,0,0,1,1.863,5.144,9.21,9.21,0,0,1-3.773,7.811c-2.455,1.821-6.2,2.744-11.139,2.744-4.686,0-8.345-.962-10.875-2.86a10.348,10.348,0,0,1-4.416-6.777c-.188-.936-.685-1.066-1.146-1.066h-1.529a1.016,1.016,0,0,0-.765.3.924.924,0,0,0-.3.688,11.442,11.442,0,0,0,2.378,6.4,15.992,15.992,0,0,0,6.513,4.913,24.979,24.979,0,0,0,10.14,1.9c5.815,0,10.438-1.263,13.741-3.752A12.227,12.227,0,0,0,562.088,5491.654Z" fill="#002c38"/>
      <g id="Group_19" data-name="Group 19">
        <path id="Path_30" data-name="Path 30" d="M71.867,5505.032a1.653,1.653,0,0,1-.459-1.223v-50.073a1.79,1.79,0,0,1,.459-1.262,1.583,1.583,0,0,1,1.223-.5H102.9a1.6,1.6,0,0,1,1.758,1.759v1.146a1.585,1.585,0,0,1-.5,1.223,1.787,1.787,0,0,1-1.261.459H76.224v19.494h25a1.6,1.6,0,0,1,1.758,1.759v1.146a1.585,1.585,0,0,1-.5,1.223,1.791,1.791,0,0,1-1.262.459h-25V5500.9h27.292a1.6,1.6,0,0,1,1.759,1.758v1.147a1.583,1.583,0,0,1-.5,1.223,1.788,1.788,0,0,1-1.261.459H73.09A1.652,1.652,0,0,1,71.867,5505.032Z" fill="#fff"/>
        <path id="Path_31" data-name="Path 31" d="M121.712,5505.032a1.65,1.65,0,0,1-.46-1.223v-50.15a1.581,1.581,0,0,1,1.682-1.682h1.453a1.579,1.579,0,0,1,1.682,1.682V5500.9h26.374a1.6,1.6,0,0,1,1.758,1.758v1.147a1.585,1.585,0,0,1-.5,1.223,1.794,1.794,0,0,1-1.262.459H122.934A1.649,1.649,0,0,1,121.712,5505.032Z" fill="#fff"/>
        <path id="Path_32" data-name="Path 32" d="M164.829,5485.156q-.078-2.293-.078-6.422t.078-6.421q.3-10.4,5.656-15.749t14.525-5.351q9.174,0,14.526,5.351t5.657,15.749q.152,4.586.153,6.421t-.153,6.422q-.535,21.1-20.183,21.1T164.829,5485.156ZM195.98,5497.5q4.091-4.165,4.4-12.729.153-4.587.153-6.039t-.153-6.039q-.3-8.562-4.434-12.729T185.01,5455.8q-6.8,0-10.931,4.167t-4.434,12.729q-.078,2.292-.077,6.039t.077,6.039q.3,8.563,4.395,12.729t10.97,4.166Q191.891,5501.668,195.98,5497.5Zm-18.844-50.571a2.912,2.912,0,0,1,.382-1.146l2.753-6.116a2.438,2.438,0,0,1,1.031-1.109,3.887,3.887,0,0,1,1.8-.343h3.058a1.586,1.586,0,0,1,1.109.382,1.431,1.431,0,0,1-.038,2.064l-5.428,6.422a2.9,2.9,0,0,1-2.294,1.07H178.36A1.081,1.081,0,0,1,177.136,5446.931Zm11.314,0a2.919,2.919,0,0,1,.383-1.146l2.751-6.116a2.441,2.441,0,0,1,1.033-1.109,3.883,3.883,0,0,1,1.8-.343h3.058a1.586,1.586,0,0,1,1.109.382,1.431,1.431,0,0,1-.038,2.064l-5.429,6.422a2.9,2.9,0,0,1-2.293,1.07h-1.146A1.082,1.082,0,0,1,188.45,5446.931Z" fill="#fff"/>
        <path id="Path_33" data-name="Path 33" d="M222.545,5505.032a1.653,1.653,0,0,1-.459-1.223v-50.073a1.79,1.79,0,0,1,.459-1.262,1.583,1.583,0,0,1,1.223-.5h16.284q7.95,0,12.575,2.332a13.523,13.523,0,0,1,6.575,6.842,30.808,30.808,0,0,1,2.1,11.467q.075,2.293.076,6.039,0,3.823-.076,6.116a31.629,31.629,0,0,1-2.1,11.812,13.11,13.11,0,0,1-6.461,6.689q-4.511,2.219-12.307,2.217H223.768A1.652,1.652,0,0,1,222.545,5505.032Zm17.507-4.128a23.132,23.132,0,0,0,9.632-1.644,10.028,10.028,0,0,0,5.084-5.2,26.127,26.127,0,0,0,1.72-9.671q.073-2.294.076-5.734,0-3.362-.076-5.657-.154-8.561-4.014-12.5t-12.8-3.937H226.9v44.34Z" fill="#fff"/>
      </g>
    </g>
  </g>
</svg>
